<svg xmlns="http://www.w3.org/2000/svg" width="220.003" height="74" viewBox="0 0 220.003 74">
  <g id="Logo" transform="translate(0 0.307)">
    <g id="Layer_2" data-name="Layer 2" transform="translate(0 -0.307)">
      <g id="Layer_1" data-name="Layer 1" transform="translate(0)">
        <path id="Path_23" data-name="Path 23" d="M377.86,54.382V30.16h2.474V54.382Z" transform="translate(-289.93 -23.142)" fill="#171a21"/>
        <path id="Path_24" data-name="Path 24" d="M400.84,72.88V54.713h2.239v4.475h.251V72.88Zm13.138,0V63.612a12.654,12.654,0,0,0-.286-2.792,6.574,6.574,0,0,0-.917-2.22,4.331,4.331,0,0,0-1.629-1.473,5.222,5.222,0,0,0-2.432-.521,5.552,5.552,0,0,0-2.313.465,4.528,4.528,0,0,0-1.68,1.3,5.864,5.864,0,0,0-1.036,2.062,9.873,9.873,0,0,0-.354,2.758l-1.757-.377a10.188,10.188,0,0,1,.977-4.694,6.772,6.772,0,0,1,2.69-2.876,7.842,7.842,0,0,1,3.937-.975,7.407,7.407,0,0,1,2.867.493,6.217,6.217,0,0,1,2.069,1.361,7.076,7.076,0,0,1,1.371,1.959,9.686,9.686,0,0,1,.756,2.327,13.033,13.033,0,0,1,.233,2.464v9.992Z" transform="translate(-307.563 -41.64)" fill="#171a21"/>
        <path id="Path_25" data-name="Path 25" d="M480.989,73.155a9.27,9.27,0,0,1-5.257-1.378,5.739,5.739,0,0,1-2.532-3.835l2.513-.421a4.082,4.082,0,0,0,1.862,2.464,6.487,6.487,0,0,0,3.556.917,5.436,5.436,0,0,0,3.258-.866,2.769,2.769,0,0,0,1.194-2.364A2.3,2.3,0,0,0,485.2,66.3a3.4,3.4,0,0,0-1.538-.984q-1.159-.454-3.465-1.077a23.242,23.242,0,0,1-3.87-1.345,4.847,4.847,0,0,1-1.985-1.557,3.816,3.816,0,0,1-.589-2.16,4.421,4.421,0,0,1,.875-2.718,5.676,5.676,0,0,1,2.422-1.815,9.255,9.255,0,0,1,3.6-.652,9.638,9.638,0,0,1,3.672.668,6.516,6.516,0,0,1,2.616,1.862,5.175,5.175,0,0,1,1.177,2.774l-2.523.465A3.667,3.667,0,0,0,484,57.233a6,6,0,0,0-3.388-.968A5.411,5.411,0,0,0,477.47,57a2.386,2.386,0,0,0-1.212,2.078,1.846,1.846,0,0,0,.438,1.236,4.063,4.063,0,0,0,1.592.968,28.373,28.373,0,0,0,3.29.977,20.8,20.8,0,0,1,3.935,1.347,4.791,4.791,0,0,1,2.036,1.664,4.372,4.372,0,0,1,.605,2.371,4.828,4.828,0,0,1-1.908,4.047A8.418,8.418,0,0,1,480.989,73.155Z" transform="translate(-363.084 -41.428)" fill="#171a21"/>
        <rect id="Rectangle_25" data-name="Rectangle 25" width="2.474" height="18.167" transform="translate(126.971 13.073)" fill="#171a21"/>
        <path id="Path_26" data-name="Path 26" d="M572.431,54.887a7.328,7.328,0,0,1-4.34-1.271,8.112,8.112,0,0,1-2.758-3.439,12.992,12.992,0,0,1-.009-9.774,8.054,8.054,0,0,1,2.734-3.432,7.947,7.947,0,0,1,8.57-.019,7.717,7.717,0,0,1,2.651,3.409,13.881,13.881,0,0,1,.007,9.806,7.846,7.846,0,0,1-2.623,3.458A7,7,0,0,1,572.431,54.887Zm.251-2.306a5.269,5.269,0,0,0,3.2-.931,5.619,5.619,0,0,0,1.883-2.6,11.7,11.7,0,0,0,0-7.537,5.536,5.536,0,0,0-1.876-2.56,5.147,5.147,0,0,0-3.153-.931,5.239,5.239,0,0,0-3.23.959,5.615,5.615,0,0,0-1.892,2.606,11.376,11.376,0,0,0,.016,7.423,5.771,5.771,0,0,0,1.892,2.616,5.049,5.049,0,0,0,3.155.954Zm5.7,1.8V40.706h-.277V30.16h2.49V54.382Z" transform="translate(-433.041 -23.142)" fill="#171a21"/>
        <path id="Path_27" data-name="Path 27" d="M649.423,73.17a8.706,8.706,0,0,1-4.6-1.177,7.968,7.968,0,0,1-3.025-3.314,10.958,10.958,0,0,1-1.077-5.012,11.62,11.62,0,0,1,1.059-5.147,7.881,7.881,0,0,1,2.986-3.349,8.563,8.563,0,0,1,4.559-1.18,8.23,8.23,0,0,1,4.591,1.238,7.642,7.642,0,0,1,2.876,3.539,13.165,13.165,0,0,1,.891,5.5h-2.522V63.4a8.592,8.592,0,0,0-1.522-5.331,5.145,5.145,0,0,0-4.242-1.8,5.458,5.458,0,0,0-4.484,1.9,8.4,8.4,0,0,0-1.566,5.415,8.163,8.163,0,0,0,1.555,5.324,5.407,5.407,0,0,0,4.421,1.892,6.327,6.327,0,0,0,3.4-.9,6.2,6.2,0,0,0,2.3-2.6l2.3.891a8.194,8.194,0,0,1-3.169,3.674,8.766,8.766,0,0,1-4.733,1.305Zm-6.946-8.9V62.2h13.876v2.069Z" transform="translate(-491.622 -41.425)" fill="#171a21"/>
        <path id="Path_28" data-name="Path 28" d="M381.677,197.864a11.421,11.421,0,0,1-4.608-.891,9.685,9.685,0,0,1-3.491-2.539,11.255,11.255,0,0,1-2.2-3.979,16.844,16.844,0,0,1-.756-5.206,15.561,15.561,0,0,1,1.322-6.637,10.116,10.116,0,0,1,3.793-4.4,10.873,10.873,0,0,1,5.936-1.564,10.287,10.287,0,0,1,6.3,1.808,9.4,9.4,0,0,1,3.391,4.852l-2.49.607a7.1,7.1,0,0,0-7.1-4.88,8.137,8.137,0,0,0-4.729,1.271,7.873,7.873,0,0,0-2.834,3.6,14.2,14.2,0,0,0-.966,5.352,13.648,13.648,0,0,0,.931,5.324,7.912,7.912,0,0,0,2.851,3.6,9.415,9.415,0,0,0,9.05.309,6.453,6.453,0,0,0,2.585-2.913,11.712,11.712,0,0,0,1-4.456h-5.585V185h8.175a7.487,7.487,0,0,1,.058.814v.614a13.981,13.981,0,0,1-1.177,5.862,9.247,9.247,0,0,1-3.542,4.072A10.844,10.844,0,0,1,381.677,197.864Z" transform="translate(-284.378 -132.474)" fill="#171a21"/>
        <path id="Path_29" data-name="Path 29" d="M469.08,218.39V200.225h2.22V204.6l-.437-.572a6.408,6.408,0,0,1,.791-1.487,5.21,5.21,0,0,1,1.059-1.119,4.931,4.931,0,0,1,1.65-.949,7.072,7.072,0,0,1,1.9-.389,5.7,5.7,0,0,1,1.75.144v2.327a5.985,5.985,0,0,0-2.169-.116,4.116,4.116,0,0,0-2.171.942,4.519,4.519,0,0,0-1.361,1.689,7.319,7.319,0,0,0-.605,2.094,15.779,15.779,0,0,0-.151,2.178v9.075Z" transform="translate(-359.923 -153.51)" fill="#171a21"/>
        <path id="Path_30" data-name="Path 30" d="M514.747,217.775a8.406,8.406,0,0,1-4.626-1.226,8.008,8.008,0,0,1-2.944-3.4,11.521,11.521,0,0,1-1.026-4.98,11.368,11.368,0,0,1,1.043-5.012,7.924,7.924,0,0,1,2.969-3.356,9.414,9.414,0,0,1,9.238.016,7.856,7.856,0,0,1,2.944,3.381,12.715,12.715,0,0,1,0,9.992,7.844,7.844,0,0,1-2.967,3.367A8.55,8.55,0,0,1,514.747,217.775Zm0-2.371a5.234,5.234,0,0,0,4.507-2.011,8.57,8.57,0,0,0,1.48-5.222,8.429,8.429,0,0,0-1.489-5.247,5.316,5.316,0,0,0-4.5-1.952,5.749,5.749,0,0,0-3.356.917,5.462,5.462,0,0,0-1.969,2.541,10.023,10.023,0,0,0-.647,3.742,8.426,8.426,0,0,0,1.513,5.257,5.257,5.257,0,0,0,4.459,1.971Z" transform="translate(-388.365 -152.385)" fill="#171a21"/>
        <path id="Path_31" data-name="Path 31" d="M592.6,219.371a7.447,7.447,0,0,1-2.851-.5,6.234,6.234,0,0,1-2.071-1.364,7.056,7.056,0,0,1-1.371-1.959,9.72,9.72,0,0,1-.756-2.327,13.228,13.228,0,0,1-.233-2.464v-10h2.485v9.269a12.679,12.679,0,0,0,.286,2.774,6.516,6.516,0,0,0,.917,2.229,4.336,4.336,0,0,0,1.629,1.473,5.213,5.213,0,0,0,2.429.521,5.515,5.515,0,0,0,2.313-.465,4.493,4.493,0,0,0,1.682-1.3,5.854,5.854,0,0,0,1.033-2.069,9.805,9.805,0,0,0,.354-2.751l1.75.389a10.194,10.194,0,0,1-.975,4.691,6.748,6.748,0,0,1-2.692,2.876A7.8,7.8,0,0,1,592.6,219.371Zm6.106-.465v-4.463h-.254V200.75h2.474v18.165Z" transform="translate(-449.113 -154.035)" fill="#171a21"/>
        <path id="Path_32" data-name="Path 32" d="M663.3,225.33V199.09h2.22v13.674h.27V225.33Zm8.175-7.565a6.975,6.975,0,0,1-4.238-1.268,7.835,7.835,0,0,1-2.625-3.449,13.865,13.865,0,0,1,0-9.806,7.679,7.679,0,0,1,2.648-3.407,8,8,0,0,1,8.589.012,8.068,8.068,0,0,1,2.739,3.432,12.971,12.971,0,0,1,0,9.774,8.128,8.128,0,0,1-2.76,3.442A7.4,7.4,0,0,1,671.475,217.765Zm-.251-2.3a5.082,5.082,0,0,0,3.162-.959,5.785,5.785,0,0,0,1.892-2.616,11.305,11.305,0,0,0,0-7.426,5.688,5.688,0,0,0-1.878-2.613,5.217,5.217,0,0,0-3.221-.959,5.134,5.134,0,0,0-3.153.931,5.524,5.524,0,0,0-1.876,2.56,11.691,11.691,0,0,0,0,7.535,5.608,5.608,0,0,0,1.876,2.592,5.15,5.15,0,0,0,3.2.949Z" transform="translate(-508.947 -152.375)" fill="#171a21"/>
        <path id="Path_33" data-name="Path 33" d="M736.323,53.23a11.024,11.024,0,0,1-6.106-1.608,10.065,10.065,0,0,1-3.768-4.449,15.829,15.829,0,0,1-1.28-6.56,15.845,15.845,0,0,1,1.28-6.562,10.09,10.09,0,0,1,3.768-4.449,12.442,12.442,0,0,1,12.219,0A10.15,10.15,0,0,1,746.2,34.05a15.724,15.724,0,0,1,1.287,6.56,15.823,15.823,0,0,1-1.287,6.56,10.125,10.125,0,0,1-3.767,4.449A10.971,10.971,0,0,1,736.323,53.23Zm0-2.374a8.24,8.24,0,0,0,4.743-1.294,7.836,7.836,0,0,0,2.851-3.609,13.962,13.962,0,0,0,.952-5.352,13.911,13.911,0,0,0-.952-5.331,7.844,7.844,0,0,0-2.851-3.6,8.324,8.324,0,0,0-4.743-1.312,8.01,8.01,0,0,0-4.729,1.3,7.9,7.9,0,0,0-2.832,3.607,14.159,14.159,0,0,0-.968,5.352,13.641,13.641,0,0,0,.931,5.324,7.912,7.912,0,0,0,2.851,3.6A8.283,8.283,0,0,0,736.323,50.856Z" transform="translate(-556.42 -21.484)" fill="#171a21"/>
        <path id="Path_34" data-name="Path 34" d="M832.141,74.8a7.39,7.39,0,0,1-2.851-.512,6.2,6.2,0,0,1-2.069-1.361,7,7,0,0,1-1.371-1.962,9.639,9.639,0,0,1-.759-2.327,13.223,13.223,0,0,1-.233-2.464V56.18h2.49v9.266a12.711,12.711,0,0,0,.286,2.776,6.571,6.571,0,0,0,.917,2.227,4.3,4.3,0,0,0,1.629,1.473,5.22,5.22,0,0,0,2.43.521,5.552,5.552,0,0,0,2.313-.465,4.517,4.517,0,0,0,1.682-1.3,5.94,5.94,0,0,0,1.036-2.069,9.919,9.919,0,0,0,.351-2.751l1.75.386a10.209,10.209,0,0,1-.975,4.694,6.777,6.777,0,0,1-2.692,2.888A7.828,7.828,0,0,1,832.141,74.8Zm6.106-.454v-4.48h-.254V56.18h2.474V74.347Z" transform="translate(-632.911 -43.107)" fill="#171a21"/>
        <path id="Path_35" data-name="Path 35" d="M894.24,41.665v-2.12h11.91v2.12Zm11.91,16.057a12.158,12.158,0,0,1-3.025.251,6.7,6.7,0,0,1-2.657-.647,3.823,3.823,0,0,1-1.773-1.785,5.133,5.133,0,0,1-.531-2.043q-.042-1.033-.042-2.364V34.5h2.455V51.034c0,.763,0,1.4.026,1.911a3,3,0,0,0,.344,1.352,2.543,2.543,0,0,0,1.927,1.347,10.318,10.318,0,0,0,3.272-.1Z" transform="translate(-686.146 -26.472)" fill="#171a21"/>
        <circle id="Ellipse_1" data-name="Ellipse 1" cx="1.387" cy="1.387" r="1.387" transform="translate(126.819 6.851)" fill="#171a21"/>
        <path id="Path_36" data-name="Path 36" d="M37,0A37,37,0,1,0,74,37,37,37,0,0,0,37,0Zm0,62.83a25.83,25.83,0,0,1-4.805-51.195,5.017,5.017,0,1,1,9.622,0A25.83,25.83,0,0,1,37,62.83Z" transform="translate(0)" fill="#32cd32"/>
        <rect id="Rectangle_26" data-name="Rectangle 26" width="9.797" height="37.98" transform="translate(32.071 18.016)" fill="#00af3f"/>
      </g>
    </g>
  </g>
</svg>
